<svg width="24" height="24" viewBox="0 0 24 24" fill="none" xmlns="http://www.w3.org/2000/svg">
<path d="M12 0C18.6274 0 24 5.37258 24 12C24 18.6274 18.6274 24 12 24C5.37258 24 0 18.6274 0 12C0 5.37258 5.37258 0 12 0ZM16.8486 7.05078C16.4581 6.6603 15.8251 6.66027 15.4346 7.05078L11.8994 10.585L8.36426 7.0498C7.97387 6.65951 7.34073 6.65975 6.9502 7.0498C6.55967 7.44033 6.55967 8.07432 6.9502 8.46484L10.4844 12L6.94922 15.5361C6.5591 15.9267 6.55887 16.5598 6.94922 16.9502C7.33974 17.3407 7.97373 17.3407 8.36426 16.9502L11.8994 13.4141L15.4346 16.9502C15.8251 17.3407 16.4591 17.3407 16.8496 16.9502C17.2401 16.5597 17.2401 15.9257 16.8496 15.5352L13.3135 11.999L16.8486 8.46484C17.2392 8.07432 17.2392 7.44131 16.8486 7.05078Z" fill="#DC3A3A"/>
</svg>
